<?xml version="1.0" standalone="no"?>
<!DOCTYPE svg PUBLIC "-//W3C//DTD SVG 20010904//EN"
 "http://www.w3.org/TR/2001/REC-SVG-20010904/DTD/svg10.dtd">
<svg version="1.0" xmlns="http://www.w3.org/2000/svg"
 width="70.000000pt" height="70.000000pt" viewBox="0 0 70.000000 70.000000"
 preserveAspectRatio="xMidYMid meet">
<metadata>
Created by potrace 1.14, written by Peter Selinger 2001-2017
</metadata>
<g transform="translate(0.000000,70.000000) scale(0.100000,-0.100000)"
fill="#000000" stroke="none">
<path d="M497 693 c-4 -3 -7 -18 -7 -33 l0 -27 -52 14 c-154 42 -309 -29 -380
-175 -28 -56 -33 -77 -33 -137 0 -58 6 -81 33 -136 36 -74 77 -116 155 -156
44 -23 64 -27 137 -27 70 -1 94 3 135 24 151 74 226 239 176 387 -12 34 -21
70 -21 80 0 29 -45 116 -80 156 -31 36 -49 44 -63 30z m-31 -74 c16 -8 29 -20
29 -28 0 -7 -58 -46 -130 -87 -76 -43 -143 -89 -161 -110 -30 -35 -31 -40 -27
-106 l5 -70 -41 7 c-27 4 -47 3 -56 -5 -23 -19 -39 32 -39 120 0 59 5 85 23
120 50 95 104 143 189 167 56 16 167 11 208 -8z m113 -148 l31 -39 0 -133 c-1
-134 -1 -134 -30 -166 -26 -29 -101 -83 -115 -83 -3 0 -5 21 -5 46 0 36 -4 47
-18 51 -16 4 -22 24 -36 121 -9 64 -21 131 -25 148 -8 31 -7 32 62 72 80 46
87 45 136 -17z m76 -141 c0 -49 -5 -84 -13 -92 -9 -9 -12 10 -12 92 0 83 2
101 13 91 7 -7 12 -41 12 -91z m-370 30 c-14 -28 -35 -65 -46 -83 l-21 -32 7
30 c3 17 7 39 8 50 3 27 17 48 47 68 13 9 26 17 27 17 2 0 -8 -23 -22 -50z
m71 3 c-10 -10 -19 5 -10 18 6 11 8 11 12 0 2 -7 1 -15 -2 -18z m-16 -23 c0
-5 -5 -10 -11 -10 -5 0 -7 5 -4 10 3 6 8 10 11 10 2 0 4 -4 4 -10z m30 -29 c0
-14 -6 -19 -20 -18 -23 1 -25 8 -8 25 17 17 28 15 28 -7z m-93 -49 c-6 -23
-17 -42 -25 -42 -7 0 -12 3 -10 8 20 41 42 81 44 79 1 -1 -3 -21 -9 -45z m50
1 c-9 -9 -19 -14 -23 -11 -10 10 6 28 24 28 15 0 15 -1 -1 -17z m53 -13 c0
-16 -7 -20 -32 -20 l-33 0 30 19 c17 11 31 20 33 20 1 1 2 -8 2 -19z m11 -73
l7 -27 -60 0 -60 0 23 28 c31 37 80 37 90 -1z m-236 -56 c15 -8 16 -10 4 -11
-15 0 -44 27 -64 60 -6 9 1 4 15 -11 14 -15 34 -32 45 -38z"/>
</g>
</svg>
